<?xml version="1.0" encoding="utf-8"?>
<!-- Generator: Adobe Illustrator 26.5.0, SVG Export Plug-In . SVG Version: 6.00 Build 0)  -->
<svg version="1.1" id="Layer_1" xmlns="http://www.w3.org/2000/svg" xmlns:xlink="http://www.w3.org/1999/xlink" x="0px" y="0px"
	 viewBox="0 0 434.7 269.8" style="enable-background:new 0 0 434.7 269.8;" xml:space="preserve">
<style type="text/css">
	.st0{fill:#C89E52;}
	.st1{fill:#FFFFFF;}
	.st2{fill-rule:evenodd;clip-rule:evenodd;fill:#FFFFFF;}
</style>
<g>
	
		<image style="overflow:visible;opacity:0.45;" width="1843" height="1157" xlink:href="401C9A10CE20C472.png"  transform="matrix(0.24 0 0 0.24 4.56 3.36)">
	</image>
	<g>
		<g>
			<g>
				<g>
					<path class="st0" d="M419.3,128.9c0.6,0,1.2-0.3,1.6-0.8c0.4-0.5,0.6-1.2,0.4-1.8c-2.8-11.9-6.2-27.6-6.5-35.2
						c-0.3-8.4,1.3-15.8,2.8-22.3c0.9-4.1,1.7-7.6,1.8-10.5c0.1-1.7-0.6-2.6-1-3.1c-1.5-1.5-4.6-2.3-8.6-2.3c-0.5,0-1,0-1.5,0
						c-64.5,3.2-129.1,28.6-191.7,53.1c-38.9,15.3-87.8,33.7-119.2,41.5c-31.4,7.8-54.8,12.1-72.5,12.1c-6.6,0-7.7-0.4-8.3-0.6
						c-0.3-0.1-0.6-0.2-0.9-0.3l-1-0.4l0.2,1.1c2.4,11.7,5.2,27.2,5.3,34.4c0.1,7.2-1.8,14.9-3.4,21.7c-1.1,4.4-2.1,8.6-2.2,11.4
						c-0.1,3.2,1.2,6.2,3.5,8.5c2.2,2.2,5.3,3.4,8.4,3.4c0.2,0,0.5,0,0.7,0c59.9-3.6,121.1-29.6,180.3-54.8
						c64.4-27.4,130.9-55.6,196.8-55.6c4.9,0,9.9,0.2,14.7,0.5C419.2,128.9,419.3,128.9,419.3,128.9z M207.2,183
						C148.1,208.1,87,234.1,27.3,237.7c-0.2,0-0.4,0-0.7,0c-2.8,0-5.6-1.1-7.7-3.1c-2.1-2.1-3.3-4.8-3.2-7.7
						c0.1-2.6,1.1-6.7,2.2-11.1c1.7-6.9,3.6-14.7,3.5-22c-0.1-7.2-2.8-22.1-5.1-33.7c0,0,0,0,0,0c0.7,0.3,1.9,0.7,8.7,0.7
						c16.6,0,39.1-3.7,72.8-12.1c24.7-6.1,63.7-19.7,119.3-41.5c62.5-24.5,127-49.8,191.3-53c0.5,0,1,0,1.5,0c3.6,0,6.6,0.7,7.8,2
						c0.2,0.2,0.8,0.8,0.7,2.2c-0.1,2.9-0.9,6.3-1.8,10.4c-1.5,6.6-3.2,14.1-2.8,22.5c0.3,7.7,3.7,23.5,6.6,35.4
						c0.1,0.3,0,0.6-0.2,0.9c-0.2,0.2-0.5,0.4-0.8,0.4c0,0-0.1,0-0.1,0c-4.8-0.3-9.8-0.5-14.8-0.5
						C338.3,127.3,271.7,155.6,207.2,183z"/>
					<path class="st0" d="M428.6,139.9L428.6,139.9c0-0.4-9.5-36.6-10-48.9c-0.3-7.9,1.3-15,2.7-21.3c1-4.2,1.8-7.9,1.9-11.2
						c0.1-2.4-0.6-4.3-2.1-5.9c-2.8-2.8-7.8-3.4-11.3-3.4c-0.6,0-1.2,0-1.7,0c-13.8,0.7-27.6,2.4-41.4,4.9
						c-22.4-26.4-55-41.5-89.5-41.5c-62.4,0-113.8,48.8-116.9,111.1l0.1,0c-17.8,6.5-35.8,12.5-53.8,17.6
						C70,151.5,47,154.9,38,155.7c-0.8,0.1-1.7,0.1-2.5,0.2c-0.1-2.6-0.4-16-1.2-17.9c-0.6-2.5-1.9-4.5-4-5.9
						c-2.3-1.5-5.5-2.2-9.3-2c-3.8,0.2-7.2,2.1-9.5,5.4c-2.5,3.5-3.5,8.1-2.6,12.4l0,0c0,0,0,0.1,0,0.1c0.5,2.1,7.6,34.9,7.8,46
						c0.1,6.7-1.7,14.2-3.3,20.8c-1.2,4.8-2.2,9-2.3,12.1c-0.1,4.2,1.5,8.3,4.6,11.3c3,2.9,6.9,4.5,11,4.5c0.3,0,0.6,0,0.9,0
						c12.1-0.7,24.3-2.4,36.5-4.7c11.1-1.8,27.2-5.1,29.6-1.9c0,0,0.2-4,5.1-6.5c24.9-6.8,39.3-9.9,48.7-3c3.6,2.6,5.9,6.5,6.5,10.9
						c0.6,4.4-0.4,8.8-3.1,12.3c-3.8,5.1-11.1,6.2-16.2,2.4c-3.6-2.7-4.3-7.7-1.7-11.3c1.8-2.5,5.3-3,7.8-1.2c1.7,1.2,2,3.6,0.8,5.3
						c-0.2,0.3-0.4,0.5-0.7,0.6c0.4-0.4,0.6-1,0.6-1.6c0-1.4-1.2-2.6-2.6-2.6c-1.3,0-2.3,0.9-2.5,2.1c-0.3,1.1,0.1,2.2,1,2.9
						c1.6,1.2,3.9,0.9,5.1-0.8c1.6-2.2,1.2-5.3-1-6.9c-3-2.2-7.2-1.6-9.4,1.4c-3,4.1-2.2,9.9,1.9,12.9c2.3,1.7,4.9,2.5,7.6,2.5
						c3.9,0,7.8-1.8,10.2-5.1c2.8-3.8,4-8.5,3.3-13.2c-0.7-4.7-3.2-8.8-7-11.6c-6.9-5.1-16.2-5.1-30-2.1c35.2-10.7,58.8-14.1,72.4-4
						c5.4,4,8.9,9.9,9.9,16.6c1,6.7-0.7,13.3-4.7,18.8c-5.8,7.9-17,9.5-24.9,3.7c-5.5-4.1-6.7-11.9-2.6-17.4
						c2.9-3.8,8.3-4.6,12.1-1.8c2.7,2,3.2,5.7,1.2,8.4c-0.7,0.9-1.6,1.4-2.7,1.6c-1.1,0.2-2.2-0.1-3-0.8c-0.3-0.2-0.5-0.5-0.7-0.8
						c0.4,0.2,0.8,0.4,1.3,0.4c1.4,0,2.6-1.2,2.6-2.6c0-1.4-1.2-2.6-2.6-2.6c-1.1,0-2.1,0.7-2.4,1.7c-0.8,1.6-0.4,3.7,1.2,4.8
						c1.1,0.8,2.5,1.2,3.9,1c1.4-0.2,2.6-0.9,3.4-2.1c2.3-3.2,1.7-7.6-1.5-10c-4.3-3.2-10.5-2.3-13.7,2c-4.5,6-3.2,14.5,2.8,19
						c3.4,2.5,7.3,3.7,11.2,3.7c5.8,0,11.5-2.6,15.2-7.6c4.2-5.7,6-12.6,4.9-19.6c-1-7-4.7-13.1-10.4-17.3c-11.6-8.6-30-7.7-56.2-1
						c15.9-5.8,31.8-12.2,47.6-18.8c22,30.2,57.4,48.2,94.7,48.2c30.9,0,60-11.9,82-33.6c21.9-21.5,34.3-50.2,35-80.9
						c2.3-0.1,4.6-0.2,6.9-0.2c0.2,3.1,0.9,15.3,1.6,17.2c1,5.4,5.7,8.5,12.9,8.5c3.8,0,7.3-1.7,9.8-4.9
						C428.4,149.3,429.5,144.5,428.6,139.9z M277.3,13.8c33.9,0,66,14.8,88.2,40.6c-1.1,0.2-2.1,0.4-3.2,0.6
						c-21.5-24.4-52.4-38.4-85-38.4c-59.5,0-109,46.4-112.9,105.7c-1,0.4-1.9,0.7-2.9,1.1C164.8,61.9,215.6,13.8,277.3,13.8z
						 M355.6,56.3c-1.7,0.4-3.5,0.7-5.2,1.1c-4.4-4.2-9.1-7.9-14.2-11.2c4.6,3.5,8.8,7.4,12.8,11.5c-1.7,0.4-3.5,0.8-5.2,1.2
						c-4.9-4.3-10.2-8.1-15.7-11.3c5.2,3.4,9.9,7.4,14.3,11.7c-1.8,0.4-3.5,0.9-5.3,1.3c-3.7-3-7.6-5.6-11.7-7.9
						c3.7,2.5,7.1,5.3,10.3,8.3c-1.8,0.5-3.6,0.9-5.4,1.4l-6.8-4.1l5.3,4.5c-1.7,0.5-3.3,0.9-5,1.4c-13.7-9.7-29.8-14.9-46.6-14.9
						c-36.4,0-68.3,24.5-77.7,59.5c-1.6,0.6-3.1,1.2-4.7,1.8c0.7-3.8,1.6-7.5,2.8-11.2c-1.7,3.8-3,7.7-4.1,11.7
						c-1.7,0.6-3.3,1.3-5,1.9c0.9-6,2.4-11.9,4.6-17.6c-2.6,5.8-4.5,11.9-5.9,18.1c-1.6,0.6-3.2,1.2-4.9,1.9
						c1.1-8.6,3.3-17.1,6.7-25.2c-3.9,8.1-6.6,16.8-8,25.7c-1.6,0.6-3.2,1.2-4.8,1.8c0.7-7.5,2.2-15,4.5-22.2
						c-2.8,7.3-4.8,14.9-5.8,22.7c-1.6,0.6-3.1,1.2-4.7,1.8c0.4-6.9,1.5-13.8,3.3-20.6c-2.2,6.8-3.7,13.9-4.5,21
						c-1.2,0.4-2.4,0.9-3.6,1.3c4.1-58.5,53-104.1,111.7-104.1c32,0,62.4,13.7,83.7,37.5c-1.3,0.3-2.6,0.5-4,0.8
						c-3.7-3.7-7.7-7.2-11.9-10.3C348.8,49,352.3,52.6,355.6,56.3z M290.7,59.5c2.7,0.5,5.3,1.2,8,2L295,73.1
						c-2.4,0.8-4.8,1.6-7.1,2.4L290.7,59.5z M286.6,75.9c-2,0.7-4.1,1.4-6.1,2.1l1-19.6c2.7,0.2,5.5,0.5,8.1,0.9L286.6,75.9z
						 M299.8,61.9c2.6,0.9,5.1,1.9,7.6,3l-2.3,4.9c-2.9,0.9-5.8,1.9-8.8,2.8L299.8,61.9z M308.4,65.4c1.4,0.7,2.7,1.4,4,2.1
						c-2,0.6-3.9,1.2-5.9,1.8L308.4,65.4z M277.3,57.1c-30.6,0-58,19.3-68.4,48.1c-2.7,1-5.3,2.1-8,3.1
						c9.5-34.1,40.8-57.9,76.3-57.9c16.3,0,31.9,4.9,45.2,14.1c-2.8,0.8-5.7,1.6-8.5,2.5C302.9,60.6,290.2,57.1,277.3,57.1z
						 M213,98.5c1.2-2.5,2.6-4.9,4-7.2l10.3,6.6c-2.8,1.1-5.6,2.2-8.5,3.3L213,98.5z M217.4,101.9c-0.7,0.3-1.3,0.5-2,0.8
						c-1.7,0.7-3.3,1.3-5,2c0.6-1.7,1.4-3.4,2.1-5.1L217.4,101.9z M217.6,90.4c1.5-2.3,3.2-4.5,4.9-6.6l13,11
						c-2.3,0.9-4.6,1.8-6.9,2.7L217.6,90.4z M223.3,82.9c1.8-2.1,3.7-4,5.7-5.9l13.6,15c-2,0.8-3.9,1.5-5.9,2.3L223.3,82.9z
						 M229.8,76.3c2.1-1.8,4.2-3.5,6.4-5.1L249,89.6c-1.8,0.7-3.5,1.3-5.3,2L229.8,76.3z M237.2,70.6c2.3-1.5,4.6-2.9,7-4.2
						L255,87.3c-1.6,0.6-3.3,1.2-4.9,1.9L237.2,70.6z M245.3,65.8c2.4-1.2,5-2.3,7.5-3.3l8.1,22.5c-1.6,0.6-3.2,1.2-4.8,1.8
						L245.3,65.8z M253.9,62.2c2.6-0.9,5.2-1.6,7.9-2.2l5,23c-1.6,0.6-3.2,1.2-4.8,1.8L253.9,62.2z M262.9,59.7
						c2.7-0.6,5.4-0.9,8.1-1.2l1.8,22.2c-1.7,0.6-3.3,1.2-5,1.8L262.9,59.7z M272.1,58.5c1.7-0.1,3.4-0.2,5.1-0.2c1,0,2,0,3.1,0.1
						l-1,20.1c-1.8,0.6-3.6,1.3-5.4,1.9L272.1,58.5z M34.3,155.9c-2.7,0.2-5.3,0.2-7.6,0.2c-2.2,0-4.2-0.1-5.8-0.2
						c-0.2-1.1-0.6-4.7-1.1-8.2c1.2,1.3,3,2.1,5,2.1c0.1,0,0.3,0,0.4,0c3.1-0.1,5.6-1.3,7.3-3.3c0.6-0.7,1-1.5,1.4-2.4
						C34.1,147.9,34.3,152.4,34.3,155.9z M12.3,136c2.2-3,5.2-4.7,8.7-4.9c3.5-0.2,6.5,0.5,8.6,1.9c2.4,1.5,3.7,4,3.8,7.2
						c0.1,2.2-0.5,4.2-1.8,5.7c-1.4,1.7-3.7,2.7-6.5,2.8c-2.5,0.1-4.5-1-5.4-3.1c-0.2-0.4-0.3-0.8-0.4-1.3c0,0,0,0,0-0.1h0
						c0-0.2,0-0.3,0-0.5c0.5,0.5,1.1,0.9,1.9,0.9c1.4,0,2.6-1.2,2.6-2.6c0-1.4-1.2-2.6-2.6-2.6c-1.1,0-2,0.7-2.4,1.6
						c-0.6,1-0.8,2.2-0.6,3.4c0.5,4.3,1.1,9.4,1.4,11.3c-0.7-0.1-1.3-0.2-1.8-0.3c-3.1-0.7-6.9-4.1-7.9-7.6
						C9.1,143.9,9.9,139.4,12.3,136z M358.5,212.5c-21.8,21.4-50.7,33.2-81.2,33.2c-36.8,0-71.8-17.7-93.6-47.5
						c0.9-0.4,1.8-0.7,2.6-1.1c21.3,28.7,55.2,45.8,90.9,45.8c29.8,0,58-11.5,79.3-32.4c21.1-20.7,33.1-48.4,33.9-77.9
						c0.9-0.1,1.9-0.1,2.8-0.2C392.5,162.7,380.2,191.2,358.5,212.5z M191.9,194.8c1.4-0.6,2.9-1.2,4.3-1.8
						c3.2,3.8,6.7,7.4,10.4,10.6c-3.4-3.5-6.5-7.2-9.3-11.1c1.4-0.6,2.9-1.2,4.3-1.8c3,3.4,6.3,6.6,9.7,9.6c-3.1-3.2-6-6.5-8.6-10.1
						c1.5-0.6,2.9-1.2,4.4-1.8c2.7,2.9,5.5,5.6,8.5,8.1c-2.6-2.7-5.1-5.5-7.3-8.5c0.3-0.1,0.6-0.2,0.9-0.4c1.2-0.5,2.3-1,3.5-1.5
						c2.3,2.3,4.7,4.5,7.2,6.5c-2.1-2.2-4.2-4.6-6-7c1.3-0.6,2.7-1.1,4-1.7c15.2,16.8,36.9,26.4,59.5,26.4
						c20.4,0,39.8-7.6,54.7-21.5c14.7-13.7,23.7-32.1,25.4-52c1.4-0.3,2.8-0.5,4.2-0.7c-0.1,4.4-0.6,8.9-1.4,13.3
						c1.2-4.4,2.1-8.9,2.6-13.4c1.5-0.2,3-0.5,4.6-0.7c-0.1,4.7-0.5,9.5-1.3,14.2c1.2-4.7,2.1-9.5,2.5-14.3c1.5-0.2,3-0.4,4.5-0.6
						c0,5.1-0.5,10.2-1.3,15.2c1.2-5,2.1-10.2,2.5-15.3c1.5-0.2,3-0.4,4.5-0.5c0,5.3-0.4,10.6-1.2,15.9c1.2-5.2,2-10.6,2.4-16
						c1.5-0.2,3-0.3,4.5-0.4c0,5.5-0.3,11-1.1,16.4c1.2-5.4,2-10.9,2.3-16.5c1.2-0.1,2.3-0.2,3.5-0.2c-0.7,29.2-12.6,56.5-33.5,77
						c-21.1,20.7-48.9,32.1-78.5,32.1c-35.2,0-68.8-16.9-89.8-45.1c1.1-0.5,2.2-0.9,3.3-1.4c3.3,4,6.8,7.7,10.6,11.2
						C197.9,202.7,194.7,198.8,191.9,194.8z M231.5,184.6l8.6-10.2c3.5-1.4,7-2.9,10.5-4.3l-12.5,19.4l1,0.6l13.4-20.7
						c2.3-0.9,4.5-1.8,6.8-2.7l-13,27.4l1,0.5l13.5-28.5c1.6-0.6,3.3-1.3,4.9-1.9l-10.8,33.5l1.1,0.3l11.1-34.4
						c1.3-0.5,2.6-1,3.8-1.5l-6.9,37.8l1.1,0.2l7-38.5c1.1-0.4,2.1-0.8,3.2-1.2l-2,40.6c-17.7-1-34.1-8.3-46.7-21
						c3.8-1.6,7.5-3.2,11.3-4.7l-7.2,8.5L231.5,184.6z M347.5,143c-0.5,2.7-1.1,5.4-1.9,8l-21.1-6.8c4.1-1.1,8.1-2.2,12.2-3.2
						L347.5,143z M339.4,140.4c2.9-0.7,5.9-1.4,8.8-2c-0.1,1.2-0.3,2.3-0.5,3.5L339.4,140.4z M345.2,152c-0.9,2.6-1.8,5.2-3,7.7
						l-27.1-12.8c2.5-0.7,4.9-1.5,7.4-2.1L345.2,152z M341.7,160.7c-1.2,2.5-2.5,4.9-4,7.2L308.4,149c1.7-0.5,3.4-1.1,5.1-1.6
						L341.7,160.7z M337.1,168.9c-1.5,2.3-3.1,4.5-4.9,6.6L303,150.7c1.3-0.4,2.6-0.9,3.9-1.3L337.1,168.9z M331.5,176.3
						c-1.8,2.1-3.7,4-5.7,5.9l-27.3-30.1c1.1-0.4,2.2-0.7,3.2-1.1L331.5,176.3z M325,183c-2,1.8-4.2,3.5-6.4,5.1l-23.9-34.6
						c0.9-0.3,1.9-0.6,2.8-0.9L325,183z M317.6,188.8c-2.3,1.5-4.6,2.9-7.1,4.2l-19.6-38.2c0.8-0.3,1.7-0.6,2.5-0.9L317.6,188.8z
						 M309.5,193.5c-2.4,1.2-5,2.3-7.5,3.3L287.4,156c0.8-0.3,1.6-0.6,2.4-0.9L309.5,193.5z M300.9,197.2c-2.6,0.9-5.2,1.7-7.9,2.3
						l-9.1-42.2c0.8-0.3,1.6-0.6,2.4-0.9L300.9,197.2z M291.9,199.7c-2.7,0.6-5.4,1-8.1,1.2l-3.5-42.3c0.8-0.3,1.7-0.6,2.5-0.9
						L291.9,199.7z M282.6,201c-1.8,0.1-3.6,0.2-5.4,0.2c-1,0-1.9,0-2.9-0.1l2-41.1c0.9-0.3,1.8-0.7,2.8-1L282.6,201z M277.3,202.3
						c37,0,67.9-27.6,72.1-64.2c2.3-0.5,4.6-0.9,6.8-1.3c-1.7,19.5-10.6,37.6-25,51c-14.7,13.7-33.9,21.2-54,21.2
						c-22.2,0-43.4-9.4-58.4-25.7c2.2-0.9,4.4-1.8,6.6-2.8C239.2,194.6,257.6,202.3,277.3,202.3z M336.7,139.9L336.7,139.9
						L336.7,139.9c-43.1,10.5-86,28.7-128,46.6c-30,12.7-60.5,25.7-91,35.9c-5,1.5-10.1,3.1-15.6,4.9c-1.7,0.5-3.3,1-5,1.5
						c-2.2,0.6-4.6,1.3-7,1.9l-0.7,0.2c-20.7,5.5-41.4,9.4-61.9,10.6c-0.3,0-0.6,0-0.9,0c-3.8,0-7.5-1.5-10.3-4.2
						c-2.9-2.8-4.4-6.5-4.3-10.4c0.1-3,1.1-7.1,2.3-11.9c1.6-6.7,3.5-14.2,3.4-21.1c-0.1-9.1-4.9-32.3-6.9-42
						c1.9,2.4,4.6,4.3,6.9,4.8c1.8,0.4,5,0.6,9,0.6c3.5,0,7.4-0.2,11.4-0.5c12-1,36.5-5.4,68.9-14.4c35.9-10.1,71.8-24.1,106.5-37.7
						l2.3-0.9c62.7-24.6,127.6-50,192.4-53.3c0.5,0,1.1,0,1.6,0c3.4,0,7.9,0.5,10.5,3c1.3,1.3,1.9,3,1.8,5c-0.1,3.2-0.9,6.8-1.9,11
						c-1.4,6.4-3.1,13.6-2.7,21.6c0.4,9.7,6.3,34,8.9,44.4c-1.5-1.9-3.8-3.7-7.4-3.9c-4.8-0.3-9.6-0.5-14.5-0.5
						C381.9,131,359.3,134.4,336.7,139.9z M402.4,132.1c0.7,0,1.4,0,2.1,0c3.7,0,7.4,0.1,11.1,0.3c0.2,1.5,0.9,4.5,1.5,7
						c-1.2-1-2.8-1.6-4.6-1.6c-5.1,0-8.1,2.7-9.2,6C402.9,140.3,402.6,135.7,402.4,132.1z M424.7,152.2c-2.3,2.9-5.4,4.5-8.9,4.5
						c-3.6,0-12-0.9-12-9.6c0-3.8,2.3-8.1,8.6-8.1c2.5,0,4.5,1.3,5.3,3.3c0.1,0.2,0.1,0.4,0.2,0.6c0,0,0,0.1,0,0.1
						c0.1,0.4,0.1,0.7,0.1,1.1c-0.5-0.5-1.2-0.9-1.9-0.9c-1.4,0-2.6,1.2-2.6,2.6c0,1.4,1.2,2.6,2.6,2.6c1.1,0,2-0.7,2.4-1.6
						c0.7-1.1,0.9-2.6,0.5-4.1c-0.1-0.4-1.8-7.5-2.3-10.1c0.7,0,1.5,0.1,2.2,0.1c5.6,0.4,7.8,5,8.5,7.1
						C428.4,144.1,427.4,148.7,424.7,152.2z"/>
				</g>
				<g>
					<g>
						<g>
							<g>
								<g>
									<path class="st0" d="M150.5,118.2c-29,8.5-62.3,16.8-88.1,15.2c-0.2,0.4-0.4,0.8-0.6,1.1c2.3,0.2,4.7,0.3,7.1,0.3
										c24.9,0,55.3-7.6,81.9-15.5L150.5,118.2z"/>
								</g>
							</g>
							<g>
								<g>
									<path class="st0" d="M33.5,100.6c0-1.4-1.2-2.6-2.7-2.5c-1.4,0-2.6,1.2-2.5,2.6c0,1.4,1.2,2.6,2.7,2.5
										C32.4,103.2,33.6,102,33.5,100.6z"/>
								</g>
								<g>
									<path class="st0" d="M32.3,124.3c-13.9-10.7-14.1-19.9-13-24.5c1.4-5.7,7.1-9.1,12.8-7.7c2,0.5,3.7,1.7,4.7,3.5
										c1.1,1.8,1.4,3.8,0.9,5.8c-0.4,1.5-1.3,2.7-2.5,3.5c-1.3,0.8-2.8,1-4.2,0.6c-2.2-0.5-3.6-2.8-3-5c0.2-0.8,0.7-1.5,1.4-1.9
										c0.7-0.4,1.5-0.6,2.4-0.4l-0.3,1.1c-0.5-0.1-1,0-1.5,0.2c-0.4,0.3-0.8,0.7-0.9,1.2c-0.4,1.6,0.6,3.2,2.2,3.6
										c1.2,0.3,2.4,0.1,3.4-0.5c1-0.6,1.7-1.6,2-2.8c0.4-1.7,0.1-3.4-0.8-4.9c-0.9-1.5-2.3-2.5-4-3c-5.1-1.2-10.2,1.9-11.4,6.9
										c-1,4.3-0.8,13,12.6,23.3L32.3,124.3z"/>
								</g>
							</g>
							<g>
								<path class="st0" d="M39.5,119.7c15.1,19.8,52,12.5,76.7,7.5c0,0-60,21.3-87.2-5.8C29,121.4,37.3,125,39.5,119.7z"/>
							</g>
						</g>
						<g>
							<path class="st0" d="M101.1,129.6c-8.8,0-17.7-1.4-26.5-5.1c-14.7-6.1-33.1-19.2-37.2-46.8c-2.8-19.1,2.8-38.7,15.2-52.5
								C70.9,4.8,94.9,5.1,105.7,10c3.5,1.6,8.1,4.6,10.7,8.3c3,4.2,4.7,10.5,4.3,16c-0.5,6.8-4.2,13.1-9.2,15.8
								c-7.2,3.8-15,3.3-19.7-1.4c-5.1-5-4.5-12.3-2.1-15.6c1.6-2.2,4.1-3.7,6.9-4c2.2-0.3,4.4,0.3,5.8,1.5c2.2,1.9,3,4,2.5,6.8
								c-0.3,1.9-2.3,3.7-4.4,4c-1.9,0.3-4-0.6-4.7-3.3l1.1-0.3c0.5,2.1,2.2,2.6,3.4,2.4c1.7-0.2,3.3-1.7,3.5-3.1
								c0.4-2.4-0.2-4.1-2.2-5.8c-1.2-1-3-1.5-4.9-1.3c-2.4,0.3-4.7,1.6-6.1,3.6c-2.1,2.9-2.6,9.7,2,14.2c4.4,4.4,11.7,4.9,18.4,1.3
								c3.9-2.1,8.2-7.5,8.7-14.9c0.4-5.2-1.3-11.2-4.1-15.3c-2.5-3.5-7.1-6.5-10.2-7.9C94.7,6.2,71.4,6,53.4,26
								C41.3,39.6,35.7,58.9,38.5,77.6c4,27.1,22.1,39.9,36.5,45.9c24.1,10,49.1,2.8,69.2-3.1c2.3-0.7,4.5-1.3,6.7-1.9l10.2-3.1
								l0.3,1.1l-10.2,3.1c-2.2,0.6-4.4,1.3-6.7,1.9C131.5,125.3,116.6,129.6,101.1,129.6z"/>
						</g>
						<g>
							<path class="st0" d="M100.7,35.6c-0.7-1.2-2.3-1.6-3.6-0.9c-1.2,0.7-1.6,2.3-0.9,3.6c0.7,1.2,2.3,1.6,3.6,0.9
								C101.1,38.4,101.5,36.8,100.7,35.6z"/>
						</g>
					</g>
					<g>
						<path class="st0" d="M123.3,157.2c1.1-0.5,2.2-0.8,3.5-1.3l-0.2-1.7l-0.1-0.3c-1.8,0.7-3.2,1.1-5.4,1.8v25.4
							c1.1-0.2,1.1-0.5,2.2-0.7V157.2z"/>
						<path class="st0" d="M67,203.2v1.9c0,0,0.6-0.1,1.1-0.2V203c0,0-0.5,0.1-0.8,0.1L67,203.2z"/>
						<path class="st0" d="M83.5,160.6l-1.1,0.3v0.6v31.3c0-0.1,1.1-0.2,1.1-0.3V160.6z"/>
						<path class="st0" d="M105.6,193.7v1.8l2.2-0.6V193c0,0-0.2,0-0.2,0l-0.7,0.2L105.6,193.7z"/>
						<path class="st0" d="M123.3,189.8l8.8-3.3v-8.3l-1.1,0.4v0.7v4.9v0.8l-1,0.3c-3.4,1.2-5.6,1.9-8.9,3v13.5
							c1.1-0.3,1.1-0.5,2.2-0.8V189.8z"/>
						<path class="st0" d="M129.5,158.7c2.1-0.7,3-1.1,5.1-1.9l0.9-0.4v-12.1l-1.1,0.4v0.8v8.7v0.8l-0.8,0.3
							c-2.1,0.8-3.2,1.1-5.2,1.9l-0.8,0.3l0.1,2L129.5,158.7z"/>
						<path class="st0" d="M103.4,207.9v-44.5l4.4-1.2v-1.8c-1.1,0-0.4,0.1-0.5,0.1l-0.4,0.1l-1.3,0.4v-1.5v-4.9v0l-1.1,0.4v0.7v4.9
							v0.8l-0.9,0.2c-0.5,0.1-1.3,0.3-1.3,0.4v46.2c0-0.1,0.5-0.1,0.7-0.2L103.4,207.9z"/>
						<path class="st0" d="M82.4,209.5v10.4v0.9l-0.9,0.2c-5.8,1.4-8.6,1.9-14.1,2.9l-0.5,0.1v1.9l1.8-0.3c5.5-1,8.1-1.6,13.8-2.9
							l0.9-0.3v-20.8c2.2-0.3,3.3-0.6,4.4-0.9v-2c-2.2,0.5-3.3,0.9-5.5,1.4V209.5z"/>
						<path class="st0" d="M135.4,194.7v8.7v0.8l-0.7,0.3c-11,4-16.6,6-27.8,9.5l-1.3,0.5v-1.5V208v0l-1.1,0.3v0.7v2.5v2.5v0.8
							l-0.9,0.2c-5.4,1.7-8.4,2.5-14.2,4l-0.4,0.1v2l1.8-0.5c5.8-1.5,8.3-2.3,13.8-4l1-0.3v-0.1l2.1-0.6c11.3-3.5,17-5.5,28-9.5
							l0.9-0.4v-12.1l-1.1,0.5V194.7z"/>
						<path class="st0" d="M68,172.2v-1.9c0,0-0.5,0.1-0.8,0.1l-1.4,0.2v6.7v0.9l-0.8,0.2c-2.1,0.4-3,0.5-5,0.8l-0.6,0.1l0.2,1.7
							l1.6-0.2c2.1-0.3,3.2-0.5,5.3-0.8l1.5-0.2V172.2z"/>
						<path class="st0" d="M58.1,219.1v0.6v4.9v1l-1,0.1c-6.9,0.9-10.3,1.2-16.9,1.5l-0.9,0.1v1.6l1.7-0.1c6.6-0.3,9.9-0.6,16.9-1.5
							l1.3-0.2v-8.1C59.2,218.9,59.2,219,58.1,219.1z"/>
						<path class="st0" d="M57,218.5v-44.6c0-0.1,0.7-0.1,1.3-0.2l-0.1-1.7c-0.9,0.1-2.2,0.2-2.2,0.3v46.3
							C55.9,218.6,56.5,218.6,57,218.5L57,218.5z"/>
						<path class="st0" d="M41.5,175.3v-1.6c-1.1,0-1.7,0.1-2.6,0.1l-0.6,3.6l-0.4,3l-0.1,0.9l-1,0c-2.1,0.1-3,0-5.2,0v2.2h1.2
							c2.1,0,3.1-0.3,5.2-0.3l1.3-0.3l0.9-7.6C40.7,175.3,41.5,175.3,41.5,175.3z"/>
						<polygon class="st0" points="160.9,141.2 160.3,141.4 159.8,141.6 159.8,143.8 160.9,143.4 						"/>
						<polygon class="st0" points="160.9,173.8 160.3,174 159.8,174.2 159.8,176.4 160.9,176 						"/>
						<path class="st0" d="M176.3,181.5v-11.7c3.3-1.2,5.3-1.9,8.6-3.3l1.3-0.4v-8.3c0,0-1.1,0.3-2.2,0.8v0.4v4.9v0.8l-0.4,0.3
							c-3.5,1.4-5.1,2.1-8.4,3.4v13.5l0.6-0.2L176.3,181.5z"/>
						<path class="st0" d="M177.4,182.7v4.9v0.8l-1,0.3c-6.3,2.4-9.7,3.7-16.2,6.2l-0.5,0.2v2.2l2-0.8c6.4-2.4,9.4-3.7,15.7-6.2
							l1-0.4v-8.3l-1.1,0.4V182.7z"/>
						<path class="st0" d="M176.3,160.6v-23.3l4.9-1.8l-0.1-1.9l-5.1,2l-0.8,0.4v25.3C175.2,160.9,176.3,160.8,176.3,160.6z"/>
						<polygon class="st0" points="190.7,139.5 190.7,123.6 188.5,124.5 188.5,124.8 188.5,137.3 188.5,138.1 188,138.3 
							186.2,139.1 183,140.3 182.2,140.6 182.4,142.6 						"/>
						<polygon class="st0" points="222.7,117.4 222.7,117.6 221.6,118.2 221.6,120 222.7,119.6 						"/>
						<path class="st0" d="M237.5,112.9c0,0-0.4,0-0.4,0v25.3c1.1-1.4,2.2-3.2,2.2-5.2v-18.6C239.3,113.3,238.2,112.9,237.5,112.9z"
							/>
						<polygon class="st0" points="259.2,103.7 258.6,103.9 258.1,104.1 258.1,106.3 259.2,105.5 						"/>
						<path class="st0" d="M252.4,144.8c1.1,2.1,1.5,3.8,1.8,5.6l0.3-0.1l0.2-0.2l0.9-0.4c-0.3-1.3-0.8-2.6-1.6-4.1
							c-1.1-2.2-3.3-4.2-4.7-5.5c-0.2-0.2-0.4-0.4-0.6-0.5c0.3-0.4,0.6-1,1-1.6c2.7-4.2,7.6-11.9,7.6-19.7c0-5.8-2.4-10-6.6-12
							c3.2,2.1,5,5.8,5,10.9c0,7.7-4.9,15.3-7.6,19.4c-0.5,0.7-0.9,1.5-1.2,1.9c0.2,0.2,0.6,0.5,0.8,0.8
							C249.2,140.7,251.3,142.6,252.4,144.8z"/>
						<path class="st0" d="M318.6,106.3c-0.3-1.1-0.5-2.3-0.8-3.5l-0.2-0.8c-0.4,1.8-0.7,3.4-1,5c-0.6,3.3-1.3,6.4-2.1,10.5
							c0.7-0.2,1.3-0.4,1.9-0.6C317.2,113.6,318.2,108.4,318.6,106.3z"/>
						<path class="st0" d="M301.2,132.8V90.1l1.1-0.7v-8.2l-1.1,0.4v0.7v4.9V88l-0.9,0.3c-0.5,0.2-0.3,0.3-1.4,0.4v44.7
							c0-0.1,0.5-0.1,0.7-0.2L301.2,132.8z"/>
						<path class="st0" d="M279.5,116.4c0.2-0.4,0.3-0.8,0.5-1.2c-3.9-7-6.3-11.6-10.7-20l-0.6-1.3l-1,0.4c4.6,8.8,7.1,13.4,11.3,21
							L279.5,116.4z"/>
						<path class="st0" d="M330.9,95.4c2,9,4.1,18,6.1,27c0.3-0.1,0.3-0.1,0.7-0.2l0.7-0.2c-1.9-8.5-3.9-17.1-5.9-25.6
							c-1.6-7.2-3.3-14.4-4.9-21.5l-0.4-1.7l-1.3,0.4l0.1,0.3C327.7,81.1,329.3,88.2,330.9,95.4z"/>
						<path class="st0" d="M313.1,125c-0.9,4.3-1.3,6.7-2.3,11.3l-0.1,0.6l-0.6,0.2c-2.9,0.9-4.4,1.4-7.5,2.4l-1.4,0.4v0l-0.7,0.3
							c-6,2-9.1,3.1-15.3,5.4l-0.5,0.2v2.2l1.9-0.8c6.3-2.3,9-3.4,15-5.4l0.5-0.2l1.5-0.5c3-1,4.7-1.5,7.7-2.4l0.9-0.3l0.2-0.9
							c0.9-4.5,1.4-6.9,2.2-11c3.2-1,5.2-1.6,8-2.4c-0.1-0.6-0.3-1.2-0.4-1.8C318.8,123.2,316.7,123.9,313.1,125z"/>
						<path class="st0" d="M285.7,120.3c-1.1,3.5-2.5,6.5-4.3,11.1l-0.2,0.5l-0.4,0.2c-2.3,0.9-3.7,1.4-5.6,2.1l-1.8,0.7l-0.9,0.3
							l-0.4-0.9c-1.8-3.2-3-5.3-4.1-7.8v18.5l0-0.2l1.1-0.6v-14.8c1.1,1.9,2.1,3.7,3.5,6.2l0.8,1.2l3.1-1.2c1.9-0.7,3.3-1.3,5.6-2.1
							l0.7-0.3l0.4-0.7c0.9-2.4,1.4-4.3,2.5-6.1V120.3z"/>
						<path class="st0" d="M216.4,152.5l2.7,11.9l0.8-0.3l0.4-0.2l-2.3-10.4c-2.7-11.8-5.5-23.6-8.2-35.4l-0.4-1.8l-1.3,0.5l0.1,0.3
							C210.9,128.8,213.7,140.8,216.4,152.5z"/>
						<path class="st0" d="M338.8,123.3v4.9v0.9l-0.6,0.2c-5.1,1.2-7.4,1.8-12.5,3.3l-0.8,0.2c0,0.1,0,0.1,0,0.2l0.4,1.6l1.6-0.4
							c5.2-1.4,7.7-2.1,12.8-3.3l1.3-0.3v-8.2c0,0-1.1,0.4-2.2,0.5V123.3z"/>
						<path class="st0" d="M269.2,145.9v4.9v0.8l-0.4,0.3c-4.1,1.6-6,2.4-10.1,4l-1.6,0.6v-1.6v-4.5l-1.1,0.4v0.4v4.9v0.8l-0.5,0.3
							c-5,2-7.3,3-12.4,5l-0.4,0.2v2.3l2-0.9c5-2,7.3-3,12.4-5l1.1-0.4v0.1l2.1-0.9c4.1-1.6,6-2.4,10.2-4l1-0.4v-8.3l-2.2,0.8V145.9
							z"/>
						<path class="st0" d="M200.8,150.4c-0.3-1.4-0.6-2.8-1-4.4c-1.1,5.6-1.9,9.7-3.1,16c0.7-0.3,1.3-0.5,2-0.8
							C199.5,157.2,200.1,154,200.8,150.4z"/>
						<path class="st0" d="M195.2,169.9c-0.9,4.5-1.4,6.9-2.3,11.7l-0.1,0.6l-0.6,0.2c-3,1.2-4.6,1.8-7.6,3l-0.6,0.2v2.2l10.4-4.1
							l0.1-0.9c0.9-4.6,1.4-7.1,2.2-11.4c3.1-1.2,5.1-2,8.1-3.2c-0.1-0.6-0.3-1.2-0.4-1.9C200.9,167.6,198.8,168.4,195.2,169.9z"/>
						<path class="st0" d="M237.1,149.4v14.1v0.7l-0.5,0.3c-5.3,2.1-7.9,3.2-12.9,5.2l-0.7,0.3l-1.3,0.6v0l-0.7,0.2
							c-5.1,2.1-7.9,3.1-13,5.1l-1,0.4c0.2,1.1,0.4,1.9,0.4,1.9l14.3-5.8v0l3.3-1.2c5-2,8-3.1,13.3-5.2l1.2-0.4v-13.6
							C238.2,151,238.2,150.1,237.1,149.4z"/>
						<path class="st0" d="M383.2,67c2,5.8,3.5,10.1,5.7,16.3c0.2-0.6,0.4-1.2,0.6-1.8c-1.7-4.8-3-8.6-4.7-13.5l-2-5.7l-1.2,0.1
							l0,0.1L383.2,67z"/>
						<path class="st0" d="M359.6,117.7c-2.7-2.2-4.1-9-4.1-20.5c0-14.6,2.2-20.8,3.6-22.8l-0.3-1.2l-0.3-1.2
							c-1.4,0.7-4.7,6-4.7,24.1C353.9,109.4,355.8,116.6,359.6,117.7z"/>
						<path class="st0" d="M366.4,117.9v2.3v2.3v0.8l-0.7,0.3c-0.1,0-2.7,1-5.2,1.5c-1.4,0.3-2.7,0.4-4,0.4c-4.3,0-7.9-1.5-10.9-4.5
							c-1.3-1.3-2.4-2.9-3.4-4.8c1.1,2.5,2.5,4.6,4.2,6.3c3,3.1,6.8,4.7,11.2,4.7h0c1.3,0,2.6-0.2,4-0.5c2.5-0.5,5-1.6,5.1-1.6
							l0.8-0.4v-8.1l-1.1,0.4V117.9z"/>
						<path class="st0" d="M395.1,115.2v4.9v1.1l-0.9,0c-6.3,0.3-9.3,0.5-15.7,1.2l-1,0.1v1.6l1.8-0.2c6.4-0.7,9.5-0.9,15.8-1.2
							l1.2-0.1v-8.1c0,0-1.1,0.1-1.1,0.1V115.2z"/>
						<path class="st0" d="M405.7,60.9c-0.2,0-0.6,0-0.6,0v0.6v4.9v1.2h-0.5c-0.5,0-1,0-1.4,0c-3.7,10.6-7,20.9-10.3,28.9v9.3v8.4
							c0,0,0.6,0,0.9,0l1.3,0V97.6c3.3-9.5,6.5-19,9.8-28.5c0.3,0,2.3,0,2.3,0v-8.2H405.7z"/>
						<path class="st0" d="M366.4,70.7v2.8v0.9l-0.9,0.2c-2.1,0.3-3,0.5-5.1,0.9l-0.6,0.1l0.4,1.7l1.6-0.3c2.1-0.4,3.2-0.6,5.2-0.9
							l1.6-0.2l-0.1-5.4L366.4,70.7z"/>
					</g>
					<path class="st0" d="M371,77.6"/>
					<g>
						<path class="st0" d="M131.4,75.4c0,4.2-14.1,7.6-31.4,7.6s-31.4-3.4-31.4-7.6c0-4.2,14.1-7.6,31.4-7.6S131.4,71.2,131.4,75.4z
							"/>
					</g>
					<g>
						<g>
							<path class="st0" d="M421.9,225.5h-77.1c-0.3,0-0.6-0.2-0.6-0.6c0-0.3,0.2-0.6,0.6-0.6h77.1c0.3,0,0.6,0.2,0.6,0.6
								C422.4,225.2,422.2,225.5,421.9,225.5z"/>
						</g>
						<g>
							<path class="st0" d="M408.2,229h-68.9c-0.3,0-0.6-0.2-0.6-0.6c0-0.3,0.2-0.6,0.6-0.6h68.9c0.3,0,0.6,0.2,0.6,0.6
								C408.8,228.8,408.5,229,408.2,229z"/>
						</g>
						<g>
							<path class="st0" d="M366.9,239.7h-49.1c-0.3,0-0.6-0.2-0.6-0.6c0-0.3,0.2-0.6,0.6-0.6h49.1c0.3,0,0.6,0.2,0.6,0.6
								C367.4,239.5,367.2,239.7,366.9,239.7z"/>
						</g>
						<g>
							<path class="st0" d="M380.8,236.2h-54.7c-0.3,0-0.6-0.2-0.6-0.6s0.2-0.6,0.6-0.6h54.7c0.3,0,0.6,0.2,0.6,0.6
								S381.1,236.2,380.8,236.2z"/>
						</g>
						<g>
							<path class="st0" d="M394.5,232.6h-61.1c-0.3,0-0.6-0.2-0.6-0.6s0.2-0.6,0.6-0.6h61.1c0.3,0,0.6,0.2,0.6,0.6
								S394.8,232.6,394.5,232.6z"/>
						</g>
					</g>
					<g>
						<path class="st0" d="M389.6,225.1l11.7-39.3c0.2-0.5,0.3-0.8,0.6-0.8l1.1,0c0.1,0,0.1-0.1,0.1-0.1v-11.9h1.1v11.9
							c0,0.1,0.1,0.1,0.1,0.1h1.5l11.9,40.1l-1,0.3l-0.9-3.1c0-0.1-0.1-0.1-0.1-0.1h-24c-0.1,0-0.1,0-0.1,0.1l-0.9,3.1L389.6,225.1z
							 M403.7,210.9C403.6,210.9,403.6,210.9,403.7,210.9l-10.9,10c0,0,0,0.1,0,0.1c0,0,0.1,0.1,0.1,0.1h21.6c0,0,0.1,0,0.1-0.1
							c0,0,0-0.1,0-0.1L403.7,210.9C403.7,210.9,403.7,210.9,403.7,210.9z M396.8,204.6C396.8,204.6,396.7,204.7,396.8,204.6
							l-4.5,14.9c0,0.1,0,0.1,0.1,0.1c0,0,0,0,0.1,0c0,0,0.1,0,0.1,0l10.3-9.4c0,0,0-0.1,0-0.1c0,0,0-0.1,0-0.1l-5.9-5.4
							C396.9,204.6,396.9,204.6,396.8,204.6C396.8,204.6,396.8,204.6,396.8,204.6z M410.4,204.7
							C410.4,204.7,410.4,204.7,410.4,204.7l-5.9,5.4c0,0,0,0.1,0,0.1c0,0,0,0.1,0,0.1l10.2,9.4c0,0,0.1,0,0.1,0c0,0,0,0,0.1,0
							c0,0,0.1-0.1,0.1-0.1l-4.4-14.7C410.5,204.8,410.5,204.7,410.4,204.7C410.4,204.7,410.4,204.7,410.4,204.7z M398.3,204.2
							c0,0-0.1,0-0.1,0.1c0,0,0,0.1,0,0.1l5.4,5c0,0,0.1,0,0.1,0c0,0,0.1,0,0.1,0l5.4-5c0,0,0-0.1,0-0.1c0,0-0.1-0.1-0.1-0.1H398.3z
							 M403.7,193.7c0,0-0.1,0-0.1,0.1l-5.8,9.2c0,0,0,0.1,0,0.1c0,0,0.1,0.1,0.1,0.1h11.7c0,0,0.1,0,0.1-0.1s0-0.1,0-0.1l-5.9-9.2
							C403.7,193.7,403.7,193.7,403.7,193.7L403.7,193.7z M401.2,189.9C401.2,189.9,401.1,189.9,401.2,189.9l-3,9.9
							c0,0.1,0,0.1,0.1,0.1c0,0,0,0,0,0c0,0,0.1,0,0.1-0.1l4.6-7.2c0,0,0-0.1,0-0.1l-1.7-2.6C401.3,189.9,401.3,189.9,401.2,189.9
							C401.2,189.9,401.2,189.9,401.2,189.9z M406,189.9c0,0-0.1,0-0.1,0.1l-1.6,2.5c0,0,0,0.1,0,0.1l4.4,6.8c0,0,0.1,0.1,0.1,0.1
							c0,0,0,0,0,0c0.1,0,0.1-0.1,0.1-0.1l-2.8-9.4C406.1,189.9,406.1,189.9,406,189.9C406,189.9,406,189.9,406,189.9z M402.2,188.9
							c0,0-0.1,0-0.1,0.1c0,0,0,0.1,0,0.1l1.5,2.3c0,0,0.1,0.1,0.1,0.1l0,0c0,0,0.1,0,0.1-0.1l1.4-2.3c0,0,0-0.1,0-0.1
							c0,0-0.1-0.1-0.1-0.1H402.2z M402.4,186c-0.1,0-0.1,0-0.1,0.1l-0.5,1.6c0,0,0,0.1,0,0.1c0,0,0.1,0,0.1,0h3.5c0,0,0.1,0,0.1,0
							c0,0,0-0.1,0-0.1l-0.5-1.6c0-0.1-0.1-0.1-0.1-0.1H402.4z"/>
						<polyline class="st0" points="419.4,172.8 421.2,176.5 411.4,172.8 411.4,172.8 421.2,169.1 419.4,172.8 						"/>
						<g>
							<path class="st0" d="M403.6,179.6c-3.8,0-6.8-3.1-6.8-6.8c0-3.8,3.1-6.8,6.8-6.8s6.8,3.1,6.8,6.8
								C410.5,176.6,407.4,179.6,403.6,179.6z M403.6,166.4c-3.5,0-6.4,2.9-6.4,6.4c0,3.5,2.9,6.4,6.4,6.4c3.5,0,6.4-2.9,6.4-6.4
								C410,169.3,407.1,166.4,403.6,166.4z"/>
						</g>
						<g>
							<polygon class="st0" points="403.6,162 402.1,162.3 402.9,170.1 403.6,170.1 404.3,170.1 405.2,161.8 							"/>
						</g>
						<g>
							<polygon class="st0" points="398.2,163.5 397,164.5 401.6,170.8 402.3,170.5 402.9,170.1 399.5,162.5 							"/>
						</g>
						<g>
							<polygon class="st0" points="394.3,167.4 393.7,168.9 400.9,172.1 401.3,171.5 401.7,170.8 394.9,166 							"/>
						</g>
						<g>
							<polygon class="st0" points="392.9,172.8 393.1,174.3 400.9,173.5 400.9,172.8 400.9,172.1 392.6,171.3 							"/>
						</g>
						<g>
							<polygon class="st0" points="394.3,178.2 395.3,179.4 401.7,174.8 401.3,174.1 400.9,173.5 393.3,177 							"/>
						</g>
						<g>
							<polygon class="st0" points="398.2,182.1 399.7,182.7 402.9,175.5 402.3,175.1 401.6,174.8 396.8,181.6 							"/>
						</g>
						<g>
							<polygon class="st0" points="403.6,183.6 405.2,183.3 404.3,175.5 403.6,175.5 402.9,175.5 402.1,183.8 							"/>
						</g>
						<g>
							<polygon class="st0" points="409,182.1 410.2,181.1 405.6,174.8 405,175.1 404.3,175.5 407.8,183.1 							"/>
						</g>
						<g>
							<polygon class="st0" points="412.9,178.2 413.5,176.7 406.3,173.5 405.9,174.1 405.6,174.8 412.4,179.6 							"/>
						</g>
						<g>
							<polygon class="st0" points="414.4,172.8 414.1,171.3 406.3,172.1 406.3,172.8 406.3,173.5 414.6,174.3 							"/>
						</g>
						<g>
							<polygon class="st0" points="412.9,167.4 411.9,166.2 405.6,170.8 405.9,171.5 406.3,172.1 413.9,168.6 							"/>
						</g>
						<g>
							<polygon class="st0" points="409,163.5 407.5,162.9 404.3,170.1 405,170.5 405.6,170.8 410.5,164 							"/>
						</g>
						<path class="st0" d="M405.8,174.6l-0.8-0.8c0.4-0.6,0.4-1.4,0-2l0.8-0.8l-0.4-0.4l-0.8,0.8c-0.6-0.4-1.4-0.4-2,0l-0.8-0.8
							l-0.4,0.4l0.8,0.8c-0.4,0.6-0.4,1.4,0,2l-0.8,0.8l0.4,0.4l0.8-0.8c0.6,0.4,1.4,0.4,2,0l0.8,0.8L405.8,174.6z M402.8,173.6
							c-0.5-0.5-0.5-1.2,0-1.6c0.5-0.5,1.2-0.5,1.6,0c0.5,0.5,0.5,1.2,0,1.6C404,174.1,403.2,174.1,402.8,173.6z"/>
						<path class="st0" d="M404.4,172.8c0,0.4-0.3,0.8-0.8,0.8c-0.4,0-0.8-0.3-0.8-0.8c0-0.4,0.3-0.8,0.8-0.8
							C404,172,404.4,172.4,404.4,172.8z"/>
					</g>
				</g>
			</g>
			<g>
				<g>
					<path class="st1" d="M201.8,78.8c3.1,1.9,3.4,5,1.8,7.7c-0.7,1.1-1.4,1.8-2.4,2.3l-0.9-1.3c0.6-0.3,1.2-0.9,1.7-1.8
						c0.6-1.1,0.3-2.3-0.8-3c-1.8-1.1-3.4-1-6.3-0.6c-2.8,0.3-4.4,0-6-0.9c-2.7-1.6-3.3-4.3-1.7-7c0.5-0.8,1.3-1.6,1.9-1.9l2.1,1.3
						l-0.9,1.4l-1.3-0.5c-0.1,0.1-0.3,0.3-0.4,0.6c-0.4,0.7-0.1,1.8,0.8,2.4c1.3,0.8,2.8,0.7,5.7,0.4
						C198.1,77.4,199.9,77.6,201.8,78.8z"/>
					<path class="st1" d="M205.7,66.1c6.4,5.1,6.5,8.3,4.7,10.6c-1.8,2.3-5,3-11.4-2.1c-6.4-5.1-6.5-8.3-4.7-10.6
						C196.1,61.7,199.3,61,205.7,66.1z M203,69.4c-5.7-4.5-7-5-7.5-4.4c-0.5,0.7,0.3,1.7,6,6.2c5.7,4.5,7,5,7.5,4.4
						C209.6,75,208.8,73.9,203,69.4z"/>
					<path class="st1" d="M214.9,56.9c5.8,6,4.5,9.6,1.6,12.4l-2.4,2.3l-1.2-1.2l0.5-0.4l-11.6-12l-0.5,0.5l-1.2-1.2l2.4-2.3
						C205.5,52.1,209.1,50.9,214.9,56.9z M211.9,59.9c-4.5-4.6-6.2-5.4-7.1-4.5l11.4,11.8C217,66.3,216.3,64.5,211.9,59.9z"/>
					<path class="st1" d="M231,57.3l-3.3,2.5l-3-2.7l-2.8,2.1l1.7,3.6l-2,1.5l-1-1.4l0.5-0.4L213,45.7l2.5-1.9l14,12.6L230,56
						L231,57.3z M223.4,56l-5.6-5.1l3.3,6.8L223.4,56z"/>
					<path class="st1" d="M235,37.3l-1.5,0.8l-1.4-2.2l-2.4,1.2l4.4,8.5l2.7-1.4l0.8,1.5l-2.7,1.4l2.5,4.8l0.6-0.3l0.8,1.5l-4.6,2.4
						l-0.8-1.5l0.6-0.3l-2.5-4.8l-0.6,0.3l-0.8-1.5l0.6-0.3l-4.4-8.5l-0.6,0.3l-0.8-1.5l8.1-4.2L235,37.3z"/>
					<path class="st1" d="M249.1,38c2.9,7.7,1.3,10.5-1.5,11.5c-2.8,1-5.8,0-8.7-7.7c-2.9-7.7-1.3-10.5,1.5-11.5
						C243.2,29.2,246.3,30.3,249.1,38z M245.1,39.5c-2.6-6.9-3.3-7.9-4.1-7.6c-0.8,0.3-0.6,1.6,1.9,8.5c2.6,6.9,3.3,7.9,4.1,7.6
						C247.8,47.6,247.7,46.3,245.1,39.5z"/>
					<path class="st1" d="M260.8,26.7l-0.7,0.1l2.7,12.5c0.8,3.8-1.3,6.3-3.8,6.8c-2.5,0.5-5.4-0.8-6.2-4.6L250.2,29l-0.6,0.1
						l-0.4-1.6l4.4-1l3.5,16.2c0.3,1.2,1,1.9,1.6,1.7c0.7-0.1,1-1.1,0.8-2.2L256,26l4.5-1L260.8,26.7z"/>
					<path class="st1" d="M275.3,25.4l-0.6,0l1.4,18.4l-2.9,0.2L267,32.2l0.8,10.5l0.6,0l0.1,1.7l-3.4,0.2l-0.1-1.7l0.6,0l-1.2-16.6
						l-0.6,0l-0.1-1.7l3.5-0.3l6.1,11.8l-0.8-10.6l-0.6,0l-0.1-1.7l3.4-0.2L275.3,25.4z"/>
					<path class="st1" d="M288.6,28.6l-1.7-0.1l-0.2-2.6l-1.5-0.1l-1,16.6l0.8,0l-0.1,1.7l-5.4-0.3l0.1-1.7l0.8,0l1-16.6l-1.5-0.1
						l-0.5,2.6l-1.7-0.1l0.2-4.3l10.9,0.6L288.6,28.6z"/>
					<path class="st1" d="M298.1,46.2l-4.1-0.7l-0.1-4l-3.5-0.6l-1.4,3.7l-2.4-0.4l0.3-1.7l0.6,0.1l6.8-17.5l3.1,0.5l0.4,18.8
						l0.6,0.1L298.1,46.2z M293.8,39.8l-0.1-7.6l-2.7,7.1L293.8,39.8z"/>
					<path class="st1" d="M303.5,48l-5-1.4l0.5-1.6l0.6,0.2l4.6-16l-0.6-0.2l0.5-1.6l5,1.4l-0.5,1.6l-0.6-0.2l-4.6,16l0.6,0.2
						L303.5,48z"/>
					<path class="st1" d="M322.1,35.5l-0.6-0.2l-7,17l-2.7-1.1l-0.2-13.4l-4,9.7l0.6,0.2l-0.6,1.6l-3.1-1.3l0.6-1.6l0.6,0.2
						l6.3-15.4l-0.6-0.2l0.6-1.6l3.3,1.3l0.2,13.3l4-9.8l-0.6-0.2l0.6-1.6l3.1,1.3L322.1,35.5z"/>
				</g>
				<g>
					<g>
						<g>
							<path class="st1" d="M316.7,64.8c0.4-0.6,1.2-0.8,1.8-0.4c0.6,0.4,0.8,1.2,0.4,1.8c-0.4,0.6-1.2,0.8-1.8,0.4
								C316.5,66.2,316.4,65.4,316.7,64.8z"/>
						</g>
					</g>
					<g>
						<g>
							<path class="st1" d="M312.2,62.3c0.3-0.6,1.1-0.9,1.8-0.6c0.6,0.4,0.9,1.2,0.5,1.8c-0.4,0.6-1.1,0.8-1.7,0.5
								C312.1,63.7,311.9,62.9,312.2,62.3z"/>
						</g>
					</g>
					<g>
						<g>
							<path class="st1" d="M307.5,60.1c0.3-0.7,1.1-1,1.7-0.7c0.7,0.3,1,1.1,0.6,1.7c-0.3,0.6-1.1,0.9-1.7,0.6
								C307.5,61.5,307.2,60.7,307.5,60.1z"/>
						</g>
					</g>
					<g>
						<g>
							<path class="st1" d="M302.7,58.2c0.2-0.7,1-1.1,1.7-0.8c0.7,0.3,1,1,0.7,1.7c-0.3,0.7-1,1-1.7,0.7
								C302.8,59.5,302.5,58.8,302.7,58.2z"/>
						</g>
					</g>
					<g>
						<g>
							<path class="st1" d="M297.8,56.6c0.2-0.7,0.9-1.1,1.6-0.9c0.7,0.2,1.1,0.9,0.9,1.6c-0.2,0.7-0.9,1.1-1.6,0.9
								C298,58,297.6,57.3,297.8,56.6z"/>
						</g>
					</g>
					<g>
						<g>
							<path class="st1" d="M292.7,55.4c0.1-0.7,0.8-1.1,1.5-1c0.7,0.2,1.1,0.9,1,1.6c-0.2,0.7-0.9,1.1-1.5,1
								C293,56.8,292.6,56.1,292.7,55.4z"/>
						</g>
					</g>
					<g>
						<g>
							<path class="st1" d="M287.6,54.5c0.1-0.7,0.8-1.2,1.5-1.1c0.7,0.1,1.2,0.8,1.1,1.5c-0.1,0.7-0.8,1.2-1.5,1.1
								C288,55.9,287.5,55.2,287.6,54.5z"/>
						</g>
					</g>
					<g>
						<g>
							<path class="st1" d="M282.4,54c0-0.7,0.7-1.3,1.4-1.2c0.7,0.1,1.3,0.7,1.2,1.4c-0.1,0.7-0.7,1.3-1.4,1.2
								C282.9,55.3,282.4,54.7,282.4,54z"/>
						</g>
					</g>
					<g>
						<g>
							<path class="st1" d="M277.3,53.8c0-0.7,0.6-1.3,1.3-1.3c0.7,0,1.3,0.6,1.3,1.3c0,0.7-0.6,1.3-1.3,1.3
								C277.8,55.1,277.3,54.5,277.3,53.8z"/>
						</g>
					</g>
					<g>
						<g>
							<path class="st1" d="M272.1,54c-0.1-0.7,0.5-1.3,1.2-1.4c0.7,0,1.3,0.5,1.4,1.3c0,0.7-0.5,1.3-1.2,1.3
								C272.7,55.2,272.1,54.7,272.1,54z"/>
						</g>
					</g>
					<g>
						<g>
							<path class="st1" d="M266.9,54.5c-0.1-0.7,0.4-1.4,1.1-1.5c0.7-0.1,1.4,0.4,1.4,1.1c0.1,0.7-0.4,1.4-1.1,1.5
								C267.7,55.7,267,55.2,266.9,54.5z"/>
						</g>
					</g>
					<g>
						<g>
							<path class="st1" d="M261.8,55.4c-0.2-0.7,0.3-1.4,1-1.5c0.7-0.1,1.4,0.3,1.5,1.1c0.1,0.7-0.3,1.4-1,1.5
								C262.6,56.5,262,56,261.8,55.4z"/>
						</g>
					</g>
					<g>
						<g>
							<path class="st1" d="M256.8,56.6c-0.2-0.7,0.2-1.4,0.9-1.6c0.7-0.2,1.4,0.3,1.6,1c0.2,0.7-0.3,1.4-0.9,1.6
								C257.7,57.7,257,57.3,256.8,56.6z"/>
						</g>
					</g>
					<g>
						<g>
							<path class="st1" d="M251.8,58.2c-0.2-0.7,0.1-1.4,0.8-1.7c0.7-0.2,1.4,0.1,1.6,0.8c0.2,0.7-0.2,1.4-0.8,1.7
								C252.8,59.2,252.1,58.8,251.8,58.2z"/>
						</g>
					</g>
					<g>
						<g>
							<path class="st1" d="M247,60.1c-0.3-0.6,0-1.5,0.7-1.7c0.7-0.3,1.4,0.1,1.7,0.7c0.3,0.7-0.1,1.4-0.7,1.7
								C248,61,247.3,60.7,247,60.1z"/>
						</g>
					</g>
					<g>
						<g>
							<path class="st1" d="M242.3,62.3c-0.3-0.6-0.1-1.4,0.6-1.8c0.6-0.3,1.4-0.1,1.7,0.6c0.3,0.6,0,1.4-0.6,1.7
								C243.4,63.2,242.7,62.9,242.3,62.3z"/>
						</g>
					</g>
					<g>
						<g>
							<path class="st1" d="M237.8,64.8c-0.4-0.6-0.2-1.4,0.5-1.8c0.6-0.4,1.4-0.2,1.8,0.5c0.3,0.6,0.1,1.4-0.5,1.8
								C239,65.6,238.2,65.4,237.8,64.8z"/>
						</g>
					</g>
					<g>
						<g>
							<path class="st1" d="M233.5,67.7c-0.4-0.6-0.3-1.4,0.3-1.8c0.6-0.4,1.4-0.2,1.8,0.4c0.4,0.6,0.2,1.4-0.3,1.8
								C234.7,68.4,233.9,68.3,233.5,67.7z"/>
						</g>
					</g>
					<g>
						<g>
							<path class="st1" d="M229.3,70.8c-0.5-0.6-0.4-1.4,0.2-1.8c0.6-0.5,1.4-0.4,1.8,0.2c0.4,0.6,0.3,1.4-0.2,1.8
								C230.6,71.5,229.8,71.4,229.3,70.8z"/>
						</g>
					</g>
					<g>
						<g>
							<path class="st1" d="M225.4,74.2c-0.5-0.5-0.5-1.4,0.1-1.9c0.6-0.5,1.4-0.4,1.9,0.1c0.5,0.5,0.4,1.4-0.1,1.8
								C226.7,74.8,225.9,74.8,225.4,74.2z"/>
						</g>
					</g>
					<g>
						<g>
							<path class="st1" d="M221.8,77.9c-0.5-0.5-0.5-1.3,0-1.8c0.5-0.5,1.3-0.5,1.8,0c0.5,0.5,0.5,1.3,0,1.8
								C223.1,78.4,222.3,78.4,221.8,77.9z"/>
						</g>
					</g>
					<g>
						<g>
							<path class="st1" d="M218.3,81.8c-0.6-0.5-0.7-1.3-0.2-1.8c0.5-0.6,1.3-0.6,1.8-0.1c0.5,0.5,0.6,1.3,0.1,1.8
								C219.7,82.2,218.9,82.3,218.3,81.8z"/>
						</g>
					</g>
					<g>
						<g>
							<path class="st1" d="M215.2,85.9c-0.6-0.4-0.7-1.2-0.3-1.8c0.4-0.6,1.3-0.7,1.8-0.3c0.6,0.4,0.7,1.2,0.3,1.8
								C216.6,86.2,215.8,86.4,215.2,85.9z"/>
						</g>
					</g>
					<g>
						<g>
							<path class="st1" d="M212.4,90.3c-0.6-0.4-0.8-1.2-0.4-1.8c0.4-0.6,1.2-0.8,1.8-0.4c0.6,0.4,0.8,1.2,0.4,1.8
								C213.8,90.5,213,90.6,212.4,90.3z"/>
						</g>
					</g>
					<g>
						<g>
							<path class="st1" d="M209.8,94.8c-0.6-0.3-0.9-1.1-0.6-1.8c0.4-0.6,1.2-0.9,1.8-0.5c0.6,0.4,0.8,1.1,0.5,1.7
								C211.2,94.9,210.5,95.1,209.8,94.8z"/>
						</g>
					</g>
					<g>
						<g>
							<path class="st1" d="M207.6,99.5c-0.7-0.3-1-1.1-0.6-1.7c0.3-0.7,1.1-1,1.7-0.6c0.7,0.3,0.9,1.1,0.7,1.7
								C209,99.5,208.3,99.8,207.6,99.5z"/>
						</g>
					</g>
					<g>
						<g>
							<path class="st1" d="M205.7,104.3c-0.7-0.2-1.1-1-0.8-1.7c0.3-0.7,1-1,1.7-0.7c0.7,0.3,1,1,0.7,1.7
								C207.1,104.2,206.4,104.5,205.7,104.3z"/>
						</g>
					</g>
					<g>
						<g>
							<path class="st1" d="M225.4,185.2c-0.5,0.5-1.3,0.5-1.8,0c-0.5-0.5-0.5-1.3,0-1.8c0.5-0.5,1.3-0.5,1.8,0
								C225.9,183.9,225.9,184.7,225.4,185.2z"/>
						</g>
					</g>
					<g>
						<g>
							<path class="st1" d="M229.3,188.6c-0.5,0.6-1.3,0.7-1.8,0.2c-0.6-0.5-0.6-1.3-0.1-1.8c0.5-0.5,1.3-0.6,1.8-0.1
								C229.7,187.3,229.8,188.1,229.3,188.6z"/>
						</g>
					</g>
					<g>
						<g>
							<path class="st1" d="M233.5,191.8c-0.4,0.6-1.2,0.7-1.8,0.3c-0.6-0.4-0.7-1.3-0.3-1.8c0.4-0.6,1.2-0.7,1.8-0.3
								C233.8,190.4,233.9,191.2,233.5,191.8z"/>
						</g>
					</g>
					<g>
						<g>
							<path class="st1" d="M237.8,194.6c-0.4,0.6-1.2,0.8-1.8,0.4c-0.6-0.4-0.8-1.2-0.4-1.8c0.4-0.6,1.2-0.8,1.8-0.4
								C238,193.2,238.2,194,237.8,194.6z"/>
						</g>
					</g>
					<g>
						<g>
							<path class="st1" d="M242.3,197.2c-0.3,0.6-1.1,0.9-1.8,0.6c-0.6-0.4-0.9-1.2-0.5-1.8c0.4-0.6,1.1-0.8,1.7-0.5
								C242.4,195.8,242.7,196.5,242.3,197.2z"/>
						</g>
					</g>
					<g>
						<g>
							<path class="st1" d="M247,199.4c-0.3,0.7-1.1,1-1.7,0.6c-0.7-0.3-1-1.1-0.6-1.7c0.3-0.6,1.1-0.9,1.7-0.7
								C247,198,247.3,198.7,247,199.4z"/>
						</g>
					</g>
					<g>
						<g>
							<path class="st1" d="M251.8,201.3c-0.2,0.7-1,1.1-1.7,0.8c-0.7-0.3-1-1-0.8-1.7c0.3-0.7,1-1,1.7-0.7
								C251.7,199.9,252.1,200.6,251.8,201.3z"/>
						</g>
					</g>
					<g>
						<g>
							<path class="st1" d="M256.8,202.9c-0.2,0.7-0.9,1.1-1.6,0.9c-0.7-0.2-1.1-0.9-0.9-1.6c0.2-0.7,0.9-1.1,1.6-0.9
								C256.6,201.5,257,202.2,256.8,202.9z"/>
						</g>
					</g>
					<g>
						<g>
							<path class="st1" d="M261.8,204.1c-0.1,0.7-0.8,1.1-1.5,1c-0.7-0.2-1.2-0.9-1-1.6c0.2-0.7,0.9-1.1,1.5-1
								C261.5,202.7,261.9,203.4,261.8,204.1z"/>
						</g>
					</g>
					<g>
						<g>
							<path class="st1" d="M266.9,205c-0.1,0.7-0.8,1.2-1.5,1.1c-0.7-0.1-1.2-0.8-1.1-1.5c0.1-0.7,0.8-1.2,1.5-1.1
								C266.5,203.6,267,204.3,266.9,205z"/>
						</g>
					</g>
					<g>
						<g>
							<path class="st1" d="M272.1,205.5c0,0.7-0.7,1.3-1.4,1.2c-0.7-0.1-1.3-0.7-1.2-1.4c0.1-0.7,0.7-1.3,1.4-1.2
								C271.6,204.2,272.1,204.8,272.1,205.5z"/>
						</g>
					</g>
					<g>
						<g>
							<path class="st1" d="M277.3,205.7c0,0.7-0.6,1.3-1.3,1.3c-0.7,0-1.3-0.6-1.3-1.3c0-0.7,0.6-1.3,1.3-1.3
								C276.7,204.4,277.3,205,277.3,205.7z"/>
						</g>
					</g>
					<g>
						<g>
							<path class="st1" d="M282.4,205.5c0.1,0.7-0.5,1.3-1.2,1.4c-0.7,0-1.3-0.5-1.4-1.3s0.5-1.3,1.2-1.3
								C281.8,204.2,282.4,204.8,282.4,205.5z"/>
						</g>
					</g>
					<g>
						<g>
							<path class="st1" d="M287.6,205c0.1,0.7-0.4,1.4-1.1,1.5c-0.7,0.1-1.4-0.4-1.4-1.1c-0.1-0.7,0.4-1.4,1.1-1.5
								C286.9,203.8,287.5,204.3,287.6,205z"/>
						</g>
					</g>
					<g>
						<g>
							<path class="st1" d="M292.7,204.1c0.1,0.7-0.3,1.4-1,1.5c-0.7,0.1-1.4-0.3-1.5-1.1c-0.1-0.7,0.3-1.4,1-1.5
								C291.9,202.9,292.6,203.4,292.7,204.1z"/>
						</g>
					</g>
					<g>
						<g>
							<path class="st1" d="M297.8,202.9c0.2,0.7-0.2,1.4-0.9,1.6c-0.7,0.2-1.4-0.3-1.6-1c-0.2-0.7,0.3-1.4,0.9-1.6
								C296.9,201.8,297.6,202.2,297.8,202.9z"/>
						</g>
					</g>
					<g>
						<g>
							<path class="st1" d="M302.7,201.3c0.2,0.7-0.1,1.4-0.8,1.7c-0.7,0.2-1.4-0.1-1.6-0.8c-0.2-0.7,0.1-1.4,0.8-1.6
								C301.7,200.3,302.5,200.6,302.7,201.3z"/>
						</g>
					</g>
					<g>
						<g>
							<path class="st1" d="M307.5,199.4c0.3,0.6,0,1.5-0.7,1.7c-0.7,0.3-1.4-0.1-1.7-0.7c-0.3-0.7,0.1-1.4,0.7-1.7
								C306.5,198.5,307.2,198.7,307.5,199.4z"/>
						</g>
					</g>
					<g>
						<g>
							<path class="st1" d="M312.2,197.2c0.3,0.6,0.1,1.4-0.6,1.8c-0.6,0.3-1.4,0.1-1.7-0.6c-0.3-0.6,0-1.4,0.6-1.7
								C311.1,196.3,311.9,196.5,312.2,197.2z"/>
						</g>
					</g>
					<g>
						<g>
							<path class="st1" d="M316.7,194.6c0.4,0.6,0.2,1.4-0.5,1.8c-0.6,0.4-1.4,0.2-1.8-0.5c-0.3-0.6-0.1-1.4,0.5-1.8
								C315.6,193.8,316.4,194,316.7,194.6z"/>
						</g>
					</g>
					<g>
						<g>
							<path class="st1" d="M321.1,191.8c0.4,0.6,0.3,1.4-0.3,1.8c-0.6,0.4-1.4,0.2-1.8-0.4c-0.4-0.6-0.2-1.4,0.3-1.8
								C319.8,191,320.6,191.2,321.1,191.8z"/>
						</g>
					</g>
					<g>
						<g>
							<path class="st1" d="M325.2,188.6c0.5,0.6,0.4,1.4-0.2,1.8c-0.6,0.4-1.4,0.4-1.8-0.2c-0.4-0.6-0.3-1.4,0.2-1.8
								C323.9,188,324.7,188.1,325.2,188.6z"/>
						</g>
					</g>
					<g>
						<g>
							<path class="st1" d="M329.1,185.2c0.5,0.5,0.5,1.4-0.1,1.9c-0.6,0.5-1.4,0.4-1.9-0.1c-0.5-0.5-0.4-1.4,0.1-1.8
								C327.8,184.7,328.6,184.7,329.1,185.2z"/>
						</g>
					</g>
					<g>
						<g>
							<path class="st1" d="M332.8,181.6c0.5,0.5,0.5,1.3,0,1.8c-0.5,0.5-1.3,0.5-1.8,0c-0.5-0.5-0.5-1.3,0-1.8
								C331.4,181.1,332.2,181.1,332.8,181.6z"/>
						</g>
					</g>
					<g>
						<g>
							<path class="st1" d="M336.2,177.7c0.6,0.5,0.6,1.3,0.2,1.8c-0.5,0.6-1.3,0.6-1.8,0.1c-0.5-0.5-0.6-1.3-0.1-1.8
								C334.8,177.3,335.6,177.2,336.2,177.7z"/>
						</g>
					</g>
					<g>
						<g>
							<path class="st1" d="M339.3,173.5c0.6,0.4,0.7,1.2,0.3,1.8c-0.4,0.6-1.3,0.7-1.8,0.3c-0.6-0.4-0.7-1.2-0.3-1.8
								C337.9,173.2,338.7,173.1,339.3,173.5z"/>
						</g>
					</g>
					<g>
						<g>
							<path class="st1" d="M342.2,169.2c0.6,0.4,0.8,1.2,0.4,1.8c-0.4,0.6-1.2,0.8-1.8,0.4c-0.6-0.4-0.8-1.2-0.4-1.8
								C340.7,169,341.6,168.8,342.2,169.2z"/>
						</g>
					</g>
					<g>
						<g>
							<path class="st1" d="M344.7,164.7c0.6,0.3,0.9,1.1,0.6,1.8c-0.4,0.6-1.2,0.9-1.8,0.5c-0.6-0.4-0.8-1.1-0.5-1.7
								C343.3,164.6,344.1,164.3,344.7,164.7z"/>
						</g>
					</g>
					<g>
						<g>
							<path class="st1" d="M346.9,160c0.7,0.3,1,1.1,0.7,1.7c-0.3,0.7-1.1,1-1.7,0.6c-0.6-0.3-0.9-1.1-0.6-1.7
								C345.5,160,346.3,159.7,346.9,160z"/>
						</g>
					</g>
					<g>
						<g>
							<path class="st1" d="M348.8,155.2c0.7,0.2,1.1,1,0.8,1.7c-0.3,0.7-1,1-1.7,0.7c-0.7-0.3-1-1-0.7-1.7
								C347.4,155.3,348.2,154.9,348.8,155.2z"/>
						</g>
					</g>
					<g>
						<g>
							<path class="st1" d="M350.4,150.2c0.7,0.2,1.1,0.9,0.9,1.6c-0.2,0.7-0.9,1.1-1.6,0.9c-0.7-0.2-1.1-0.9-0.9-1.6
								C349,150.4,349.7,150,350.4,150.2z"/>
						</g>
					</g>
					<g>
						<g>
							<path class="st1" d="M351.6,145.2c0.7,0.1,1.1,0.8,1,1.5c-0.2,0.7-0.9,1.2-1.6,1c-0.7-0.2-1.1-0.9-1-1.5
								C350.2,145.5,350.9,145,351.6,145.2z"/>
						</g>
					</g>
					<g>
						<g>
							<path class="st1" d="M352.5,140.1c0.7,0.1,1.2,0.8,1.1,1.5c-0.1,0.7-0.8,1.2-1.5,1.1c-0.7-0.1-1.2-0.8-1.1-1.5
								C351.1,140.5,351.8,140,352.5,140.1z"/>
						</g>
					</g>
				</g>
				<g>
					<path class="st1" d="M244.3,211.7l-1.8-0.8l0.3-1.3c0,0-0.2-0.1-0.3-0.2c-0.8-0.4-2.8,0.9-5.6,6.7c-3.4,7.2-1.7,8.6-0.4,9.2
						c0.4,0.2,0.9,0.3,1.2,0.4l-0.7,1.5c0,0-0.9-0.2-1.8-0.6c-2.8-1.3-6.7-4.1-2.8-12.5c4-8.4,8.6-7.2,11.3-5.9
						c0.8,0.4,1.8,1.1,1.8,1.1L244.3,211.7z"/>
					<path class="st1" d="M255.5,222.7c-2.4,7.8-5.7,9-9,8c-3.3-1-5.4-3.8-3.1-11.7c2.4-7.8,5.7-9,9-8
						C255.8,212,257.9,214.8,255.5,222.7z M250.8,221.2c2.1-7,2.1-8.3,1.2-8.6c-0.9-0.3-1.7,0.8-3.8,7.8c-2.1,7-2.1,8.3-1.2,8.6
						C247.9,229.3,248.7,228.2,250.8,221.2z"/>
					<path class="st1" d="M269.6,219l-1.9-0.3l0.2-2.6l-3.1-0.4l-1.4,9.4l3.5,0.5l-0.2,1.7l-3.5-0.5l-0.8,5.4l0.7,0.1l-0.2,1.7
						l-6-0.9l0.2-1.7l0.7,0.1l0.8-5.4l-0.7-0.1l0.2-1.7l0.7,0.1l1.4-9.4l-0.7-0.1l0.2-1.7l10.4,1.5L269.6,219z"/>
					<path class="st1" d="M281.8,219.3l-2,0l-0.2-2.6l-3.1-0.1l-0.2,9.5l3.6,0.1l0,1.7l-3.6-0.1l-0.1,5.4l0.8,0l0,1.7l-6-0.1l0-1.7
						l0.8,0l0.1-5.4l-0.8,0l0-1.7l0.8,0l0.2-9.5l-0.8,0l0-1.7l10.5,0.2L281.8,219.3z"/>
					<path class="st1" d="M295.4,233.5l-10.5,1.3l-0.2-1.7l0.7-0.1l-0.6-5.4l-0.7,0.1l-0.2-1.7l0.7-0.1l-1.1-9.5l-0.7,0.1l-0.2-1.7
						l10-1.2l0.4,3l-1.9,0.2l-0.3-1.3L288,216l1.1,9.5l3.5-0.4l0.2,1.7l-3.5,0.4l0.6,5.4l3.1-0.4l0.1-1.3l1.9-0.2L295.4,233.5z"/>
					<path class="st1" d="M309,230.3l-10.2,2.6l-0.4-1.6l0.7-0.2l-1.4-5.3L297,226l-0.4-1.6l0.7-0.2l-2.4-9.2l-0.7,0.2l-0.4-1.6
						l9.8-2.5l0.7,2.9l-1.9,0.5l-0.4-1.2l-2.7,0.7l2.4,9.2l3.4-0.9l0.4,1.6l-3.4,0.9l1.4,5.3l3-0.8l-0.1-1.3l1.9-0.5L309,230.3z"/>
					<path class="st1" d="M330.2,221.1l-4.7,2.3l-3.2-6.4l-2.7,1.3l3.2,6.4l-4.7,2.3l-0.7-1.5l0.7-0.3l-2.4-4.9l-0.7,0.3l-0.7-1.5
						l0.7-0.3l-4.2-8.5l-0.7,0.3l-0.7-1.5l4.7-2.3l5,10l2.7-1.3l-5-10l4.7-2.3l0.7,1.5l-0.7,0.3l7.4,14.9l0.7-0.3L330.2,221.1z"/>
					<path class="st1" d="M338.4,203.2c4.8,6.6,3.7,10,0.9,12c-2.8,2-6.3,2-11.1-4.6c-4.8-6.6-3.7-10-0.9-12
						C330,196.5,333.6,196.5,338.4,203.2z M334.4,206.1c-4.3-5.9-5.4-6.7-6.1-6.2c-0.8,0.6-0.4,1.8,3.9,7.8c4.3,5.9,5.4,6.7,6.1,6.2
						C339.1,213.3,338.7,212,334.4,206.1z"/>
					<path class="st1" d="M344.1,185.9l-0.6,0.6l9.1,9c2.8,2.8,2.1,6.2,0,8.4c-2.1,2.1-5.6,2.8-8.3,0.1l-9.1-9l-0.5,0.5l-1.2-1.2
						l3.7-3.7l11.8,11.7c0.8,0.8,1.9,1,2.4,0.4c0.6-0.6,0.4-1.6-0.4-2.5l-11.8-11.7l3.7-3.8L344.1,185.9z"/>
					<path class="st1" d="M361.1,184.7c2.9,2.1,2.7,5.6,0.5,8.5c-0.9,1.2-1.8,2-2.9,2.5l-0.7-1.5c0.7-0.3,1.4-0.9,2.1-2
						c0.9-1.2,0.8-2.5-0.3-3.3c-1.7-1.3-3.4-1.2-6.4-0.9c-3,0.3-4.6-0.1-6.1-1.2c-2.5-1.8-2.7-4.9-0.6-7.8c0.7-0.9,1.6-1.7,2.3-2.1
						l2,1.5l-1.2,1.6l-1.3-0.6c-0.2,0.1-0.3,0.3-0.5,0.6c-0.6,0.8-0.4,2,0.4,2.6c1.3,0.9,2.8,0.9,5.9,0.5
						C357.5,183,359.3,183.4,361.1,184.7z"/>
					<path class="st1" d="M372.5,175.5l-5.1,9.2l-1.5-0.8l0.4-0.7l-4.8-2.6l-0.4,0.7l-1.5-0.8l0.4-0.7l-8.3-4.6l-0.4,0.7l-1.5-0.8
						l4.9-8.8l2.6,1.4l-0.9,1.7l-1.2-0.5l-1.3,2.4l8.3,4.6l1.7-3.1l1.5,0.8l-1.7,3.1l4.8,2.6l1.5-2.7l-1-0.8l0.9-1.7L372.5,175.5z"
						/>
				</g>
				<g>
					<g>
						<g>
							<path class="st1" d="M65.3,176.9c-2.1,0.4-3.1,0.5-5.2,0.8c-0.4-3-0.6-4.4-1-7.4c-1.8,0.3-2.7,0.4-4.5,0.6
								c0,16.2,0,32.4,0,48.5c1-0.1,1.4-0.2,2.4-0.3c0,2,0,3,0,4.9c-6.7,0.9-10,1.2-16.7,1.5c0-2,0-2.9,0-4.9c1,0,1.4-0.1,2.4-0.1
								c0-16.2,0-32.4,0-48.5c-1.8,0.1-2.7,0.2-4.5,0.2c-0.4,3-0.6,4.6-1,7.6c-2.1,0.1-3.1,0.1-5.2,0.1c0-5,0-7.5,0-12.5
								c11.2,0,22.4-1.1,33.4-3C65.3,169.4,65.3,171.9,65.3,176.9z"/>
						</g>
						<g>
							<path class="st1" d="M103.5,213.4c-5.6,1.7-8.4,2.5-14,4c0-8.3,0-12.5,0-20.8c-3.1,0.8-4.7,1.2-7.9,2c0,8.3,0,12.5,0,20.8
								c-5.6,1.3-8.3,1.9-13.9,2.9c0-2,0-2.9,0-4.9c0.8-0.1,1.2-0.2,2-0.4c0-6.4,0-9.5,0-15.9c-0.8,0.2-1.2,0.2-2,0.4
								c0-2,0-2.9,0-4.9c0.8-0.1,1.2-0.2,2-0.4c0-11.1,0-16.6,0-27.7c-0.8,0.2-1.2,0.2-2,0.4c0-2,0-2.9,0-4.9
								c5.6-1,8.3-1.6,13.9-2.9c0,10.9,0,21.8,0,32.7c3.1-0.7,4.7-1.1,7.9-2c0-10.9,0-21.8,0-32.7c5.6-1.5,8.4-2.3,14-4
								c0,2,0,2.9,0,4.9c-0.8,0.2-1.2,0.4-2,0.6c0,16.2,0,32.4,0,48.5c0.8-0.2,1.2-0.4,2-0.6C103.5,210.5,103.5,211.5,103.5,213.4z"
								/>
						</g>
						<g>
							<path class="st1" d="M134.6,202.9c-11.1,4.1-16.7,6-27.8,9.5c0-2,0-3,0-4.9c0.8-0.2,1.2-0.4,2-0.6c0-6.4,0-9.5,0-15.9
								c-0.8,0.3-1.2,0.4-2,0.6c0-2,0-2.9,0-4.9c0.8-0.2,1.2-0.4,2-0.6c0-11.1,0-16.6,0-27.7c-0.8,0.3-1.2,0.4-2,0.6
								c0-2,0-2.9,0-4.9c10.6-3.3,16-5.2,26.6-9.1c0,3.5,0,5.2,0,8.7c-2.1,0.8-3.1,1.1-5.2,1.9c-0.1-1.5-0.2-2.2-0.3-3.7
								c-2.9,1-4.3,1.5-7.2,2.5c0,11.1,0,16.6,0,27.7c3.7-1.3,5.6-2,9.4-3.3c0,2,0,2.9,0,4.9c-3.8,1.3-5.6,2-9.4,3.3
								c0,6.4,0,9.5,0,15.9c3.3-1.1,4.9-1.7,8.2-2.9c0.2-1.6,0.3-2.4,0.6-4c2.1-0.7,3.1-1.1,5.2-1.9
								C134.6,197.7,134.6,199.4,134.6,202.9z"/>
						</g>
						<g>
							<path class="st1" d="M188.1,136.8c-2.1,0.8-3.1,1.2-5.2,2c-0.2-2.9-0.3-4.4-0.6-7.3c-3.3,1.2-4.9,1.9-8.2,3.1
								c0,11.1,0,16.6,0,27.7c3.8-1.5,5.6-2.2,9.4-3.6c0,2,0,2.9,0,4.9c-3.8,1.5-5.6,2.2-9.4,3.7c0,6.3,0,9.5,0,15.9
								c0.8-0.3,1.2-0.5,2-0.8c0,2,0,3,0,4.9c-6.4,2.5-9.5,3.7-15.9,6.2c0-2,0-3,0-4.9c0.8-0.3,1.2-0.5,2-0.8c0-6.4,0-9.5,0-15.9
								c-0.8,0.3-1.2,0.5-2,0.8c0-2,0-2.9,0-4.9c0.8-0.3,1.2-0.5,2-0.8c0-11.1,0-16.6,0-27.7c-0.8,0.3-1.2,0.5-2,0.8c0-2,0-3,0-4.9
								c11.1-4.2,16.7-6.4,27.8-10.6C188.1,129.3,188.1,131.8,188.1,136.8z"/>
						</g>
						<g>
							<path class="st1" d="M220.6,169.4c-5.1,2.1-7.7,3.1-12.8,5.1c-1-4.2-1.4-6.2-2.4-10.3c-4.4,1.7-6.5,2.6-10.9,4.3
								c-1,4.9-1.4,7.3-2.4,12.3c-3,1.2-4.5,1.8-7.5,3c0-2,0-3,0-4.9c0.8-0.3,1.2-0.5,2-0.8c3.7-19.2,7.5-38.5,11.2-57.7
								c3.8-1.5,5.7-2.2,9.5-3.6c3.7,16.2,7.5,32.4,11.2,48.6c0.8-0.3,1.2-0.5,2-0.8C220.6,166.5,220.6,167.5,220.6,169.4z
								 M204.4,159.8c-1.7-7.9-2.6-11.8-4.4-19.7c-1.8,9.3-2.7,13.9-4.5,23.2C199.1,161.9,200.8,161.2,204.4,159.8z"/>
						</g>
						<g>
							<path class="st1" d="M255.6,155.5c-5,2-7.5,3-12.6,5c0-3-0.4-5.9-1.7-8.5c-1.4-2.8-3.3-4.5-4.7-5.2c0,6.5,0,9.7,0,16.3
								c-5.6,2.2-8.3,3.3-13.9,5.6c0-2,0-2.9,0-4.9c0.8-0.3,1.2-0.5,2-0.8c0-15.9,0-31.7,0-47.6c-0.8,0.3-1.2,0.5-2,0.8
								c0-2,0-2.9,0-4.9c4.5-1.7,6.8-2.6,11.4-4.3c10.7-4.1,20.8-2.1,20.8,9.9c0,10-9,20.4-8.9,21.6c0.1,0.6,4.2,3.5,5.7,6.5
								c1.3,2.5,1.6,4.3,1.9,6.7c0.8-0.3,1.2-0.5,2-0.8C255.6,152.6,255.6,153.5,255.6,155.5z M242.3,121.6c0-8.4-2.6-11.7-5.7-10.5
								c0,12.3,0,18.3,0,30.4C238.8,139.2,242.3,130.6,242.3,121.6z"/>
						</g>
						<g>
							<path class="st1" d="M300.5,138.6c-6.1,2.1-9.2,3.2-15.3,5.4c0-2,0-2.9,0-4.9c0.8-0.3,1.2-0.4,2-0.7c0-10,0-14.8,0-24.6
								c-2.6,6.6-3.9,9.9-6.4,16.6c-3,1.1-4.4,1.7-7.4,2.8c-2.5-4.7-3.8-7-6.4-11.6c0,9.7,0,14.5,0,24.5c0.8-0.3,1.2-0.5,2-0.8
								c0,1.9,0,2.9,0,4.9c-4.1,1.6-6.2,2.4-10.3,4c0-2,0-2.9,0-4.9c0.8-0.3,1.2-0.5,2-0.8c0-15.7,0-31.4,0-47.1
								c-0.8,0.3-1.2,0.5-2,0.8c0-1.9,0-2.9,0-4.9c3.3-1.3,5-1.9,8.3-3.2c5.2,10,7.8,14.7,13,24.2c4.4-11.3,8.7-22.7,13-34
								c3-1.1,4.5-1.6,7.5-2.7c0,2,0,2.9,0,4.9c-0.8,0.3-1.2,0.4-2,0.7c0,15.7,0,31.4,0,47.1c0.8-0.3,1.2-0.4,2-0.7
								C300.5,135.7,300.5,136.7,300.5,138.6z"/>
						</g>
						<g>
							<path class="st1" d="M338.4,127.6c-5.1,1.2-7.7,1.9-12.8,3.3c-1-4.3-1.4-6.4-2.4-10.5c-4.4,1.2-6.5,1.9-10.9,3.2
								c-1,4.7-1.4,7.1-2.4,11.9c-3,0.9-4.5,1.4-7.5,2.4c0-2,0-2.9,0-4.9c0.8-0.3,1.2-0.4,2-0.7c3.7-18.6,7.5-37.3,11.2-55.9
								c3.8-1.2,5.7-1.8,9.5-2.9c3.7,16.5,7.5,33.1,11.2,49.6c0.8-0.2,1.2-0.3,2-0.5C338.4,124.7,338.4,125.7,338.4,127.6z
								 M322.2,115.9c-1.7-8-2.6-11.9-4.4-19.8c-1.8,9-2.7,13.4-4.5,22.4C316.9,117.4,318.7,116.9,322.2,115.9z"/>
						</g>
						<g>
							<path class="st1" d="M365.7,73c-2.1,0.3-3.1,0.5-5.2,0.9c-0.3-1.4-0.5-2.2-0.8-3.6c-0.2,0-0.6,0-0.9,0.1
								c-2.4,0.5-5.8,6.9-5.8,25.3c0,22.8,5.6,23.3,9.3,22.7c1.3-0.2,2.5-0.7,3.3-1c0,1.9,0,2.8,0,4.7c0,0-2.6,1-5,1.5
								c-15.3,3.1-20.9-12.4-20.7-25c0.2-13.4,4.7-30.9,20.3-33.6c2.2-0.4,5.5-0.3,5.5-0.3C365.7,68,365.7,69.7,365.7,73z"/>
						</g>
						<g>
							<path class="st1" d="M404.8,65.9c-0.8,0-1.2,0-2,0c-3.5,9.9-7,19.9-10.4,29.8c0,7.6,0,11.4,0,19c0.8,0,1.2-0.1,2-0.1
								c0,2,0,3,0,4.9c-6.4,0.3-9.5,0.5-15.9,1.2c0-2,0-3,0-4.9c0.8-0.1,1.2-0.1,2-0.2c0-7,0-10.5,0-17.6
								c-3.4-9.8-6.9-19.6-10.4-29.5c-0.8,0.1-1.2,0.2-2,0.3c0-2,0-2.9,0-4.9c5.1-0.8,7.7-1.1,12.8-1.7c3.3,9.5,5,14.2,8.3,23.7
								c3.5-10,5.3-15,8.8-24.9c2.8-0.1,4.2-0.1,6.9-0.1C404.8,63,404.8,63.9,404.8,65.9z"/>
						</g>
					</g>
				</g>
				<path class="st2" d="M147.1,75.6c0-0.7,0-1.4,0-2.2C147,66,125.9,60.1,99.9,60.3c-7.5,0.1-16.6,0.9-21,1.6
					c-5.7,0.8-10.2,1.9-15.4,3.6c-6.2,2.1-10.7,5.4-10.7,8.6c0.2,26,21.5,47,47.5,46.8c23.3-0.2,42.5-17.2,46.1-39.4
					c2.9-0.2,5.5,1.2,5.7,5.2c0.3,6.1-6.6,9.1-8.6,9.6c0,0-0.2,0.7-3.4,6.2c0,0,18.5-3.9,17.9-16.7C157.7,76.8,151,75.6,147.1,75.6z
					 M59,87.9c-1.7-2.7-2.3-6.8-2.3-6.8s2.3,4.2,16.2,8.1c13.3,3.7,28.8,3,28.8,3C89.7,94.5,72.5,93.8,59,87.9z M100.1,85.1
					c-21.9,0.2-39.6-4.8-39.7-11c0-1.9,1.5-3.6,4.7-5.4c3.7-2.1,9-3.2,14.6-4.3c3-0.6,13-1.8,20.2-1.8c21.9-0.2,39.7,4.8,39.7,11
					C139.6,79.7,122,84.9,100.1,85.1z"/>
			</g>
		</g>
	</g>
</g>
</svg>
